<svg width="179" height="32" viewBox="0 0 179 32" fill="none" xmlns="http://www.w3.org/2000/svg">
<rect x="2" y="2" width="26" height="25" fill="white"/>
<path d="M119.633 10.5455H115.52V28H119.633V10.5455Z" fill="white"/>
<path d="M115.906 7.42048C116.376 7.8523 116.936 8.0682 117.588 8.0682C118.247 8.0682 118.808 7.8523 119.27 7.42048C119.74 6.98108 119.974 6.45457 119.974 5.84093C119.974 5.21972 119.74 4.6932 119.27 4.26138C118.808 3.82199 118.247 3.60229 117.588 3.60229C116.936 3.60229 116.376 3.82199 115.906 4.26138C115.436 4.6932 115.202 5.21972 115.202 5.84093C115.202 6.45457 115.436 6.98108 115.906 7.42048Z" fill="white"/>
<path fill-rule="evenodd" clip-rule="evenodd" d="M49.3115 28H44.8115L53.0047 4.72729H58.2093L66.4138 28H61.9138L59.9856 22.2614H51.2362L49.3115 28ZM55.6979 9.50002L58.8478 18.875H52.3719L55.5161 9.50002H55.6979Z" fill="white"/>
<path d="M68.3373 28V10.5455H72.326V13.4546H72.5078C72.826 12.447 73.3714 11.6705 74.1441 11.125C74.9244 10.572 75.8146 10.2955 76.8146 10.2955C77.0419 10.2955 77.2957 10.3068 77.576 10.3296C77.8638 10.3447 78.1025 10.3712 78.2919 10.4091V14.1932C78.1176 14.1326 77.8411 14.0796 77.4623 14.0341C77.0911 13.9811 76.7313 13.9546 76.3828 13.9546C75.6328 13.9546 74.9585 14.1174 74.36 14.4432C73.7691 14.7614 73.3032 15.2046 72.9623 15.7727C72.6214 16.3409 72.451 16.9962 72.451 17.7387V28H68.3373Z" fill="white"/>
<path d="M82.4711 27.1932C83.7211 27.9584 85.2173 28.3409 86.9597 28.3409C88.4218 28.3409 89.6946 28.0758 90.7779 27.5455C91.8612 27.0076 92.7173 26.2652 93.3461 25.3182C93.9748 24.3637 94.3385 23.269 94.437 22.0341H90.5052C90.3839 22.6629 90.1605 23.197 89.8347 23.6364C89.5089 24.0758 89.1036 24.4129 88.6188 24.6478C88.1415 24.875 87.5999 24.9887 86.9938 24.9887C86.1377 24.9887 85.3915 24.7614 84.7552 24.3068C84.1264 23.8447 83.6377 23.1894 83.2892 22.3409C82.9408 21.4849 82.7665 20.4621 82.7665 19.2728C82.7665 18.0985 82.9408 17.0909 83.2892 16.25C83.6453 15.4091 84.1415 14.7652 84.7779 14.3182C85.4142 13.8637 86.1529 13.6364 86.9938 13.6364C87.9862 13.6364 88.7779 13.9205 89.3688 14.4887C89.9673 15.0493 90.3461 15.75 90.5052 16.5909H94.437C94.3461 15.3334 93.9749 14.2349 93.3233 13.2955C92.6718 12.3485 91.7968 11.6174 90.6983 11.1023C89.6074 10.5796 88.3536 10.3182 86.937 10.3182C85.2324 10.3182 83.7552 10.7008 82.5052 11.4659C81.2627 12.2235 80.3006 13.2841 79.6188 14.6477C78.937 16.0038 78.5961 17.5682 78.5961 19.3409C78.5961 21.1061 78.9294 22.6667 79.5961 24.0228C80.2703 25.3712 81.2286 26.4281 82.4711 27.1932Z" fill="white"/>
<path d="M100.968 17.7728V28H96.8548V4.72729H100.878V13.5114H101.082C101.491 12.5265 102.124 11.75 102.98 11.1818C103.843 10.6061 104.942 10.3182 106.275 10.3182C107.487 10.3182 108.544 10.572 109.446 11.0796C110.347 11.5871 111.044 12.3296 111.537 13.3068C112.037 14.2841 112.287 15.4773 112.287 16.8864V28H108.173V17.5228C108.173 16.3485 107.87 15.4356 107.264 14.7841C106.665 14.125 105.825 13.7955 104.741 13.7955C104.014 13.7955 103.362 13.9546 102.787 14.2727C102.218 14.5834 101.771 15.0341 101.446 15.625C101.128 16.2159 100.968 16.9318 100.968 17.7728Z" fill="white"/>
<path d="M131.619 10.5455V13.7273H128.176V22.75C128.176 23.3031 128.26 23.7273 128.426 24.0228C128.601 24.3106 128.828 24.5076 129.108 24.6137C129.388 24.7197 129.699 24.7728 130.04 24.7728C130.298 24.7728 130.532 24.7538 130.744 24.7159C130.964 24.6781 131.131 24.644 131.244 24.6137L131.938 27.8296C131.718 27.9053 131.404 27.9887 130.994 28.0796C130.593 28.1705 130.101 28.2235 129.517 28.2387C128.487 28.269 127.559 28.1137 126.733 27.7728C125.907 27.4243 125.252 26.8864 124.767 26.1591C124.29 25.4318 124.055 24.5228 124.063 23.4318V13.7273H121.585V10.5455H124.063V6.36366H128.176V10.5455H131.619Z" fill="white"/>
<path fill-rule="evenodd" clip-rule="evenodd" d="M137.105 27.25C138.378 27.9773 139.89 28.3409 141.64 28.3409C142.996 28.3409 144.2 28.1364 145.253 27.7273C146.306 27.3106 147.17 26.7273 147.844 25.9773C148.526 25.2197 148.988 24.3334 149.23 23.3182L145.39 22.8864C145.208 23.3788 144.939 23.7917 144.583 24.125C144.227 24.4584 143.806 24.7121 143.321 24.8864C142.837 25.0531 142.295 25.1364 141.696 25.1364C140.802 25.1364 140.022 24.947 139.355 24.5682C138.689 24.1818 138.17 23.6288 137.799 22.9091C137.44 22.2064 137.255 21.3693 137.242 20.3978H149.401V19.1364C149.401 17.6061 149.189 16.2879 148.765 15.1818C148.34 14.0682 147.757 13.1515 147.015 12.4318C146.28 11.7121 145.431 11.1818 144.469 10.8409C143.515 10.4924 142.499 10.3182 141.424 10.3182C139.757 10.3182 138.306 10.7008 137.071 11.4659C135.837 12.2235 134.874 13.2841 134.185 14.6477C133.503 16.0038 133.162 17.5796 133.162 19.375C133.162 21.2008 133.503 22.7879 134.185 24.1364C134.867 25.4773 135.84 26.5152 137.105 27.25ZM137.25 17.625C137.29 16.9412 137.465 16.3086 137.776 15.7273C138.132 15.0682 138.628 14.5379 139.265 14.1364C139.901 13.7273 140.64 13.5227 141.48 13.5227C142.268 13.5227 142.958 13.7008 143.549 14.0568C144.147 14.4129 144.613 14.9015 144.946 15.5227C145.28 16.1364 145.45 16.8371 145.458 17.625H137.25Z" fill="white"/>
<path d="M159.535 28.3409C157.792 28.3409 156.296 27.9584 155.046 27.1932C153.804 26.4281 152.845 25.3712 152.171 24.0228C151.504 22.6667 151.171 21.1061 151.171 19.3409C151.171 17.5682 151.512 16.0038 152.194 14.6477C152.876 13.2841 153.838 12.2235 155.08 11.4659C156.33 10.7008 157.807 10.3182 159.512 10.3182C160.929 10.3182 162.182 10.5796 163.273 11.1023C164.372 11.6174 165.247 12.3485 165.898 13.2955C166.55 14.2349 166.921 15.3334 167.012 16.5909H163.08C162.921 15.75 162.542 15.0493 161.944 14.4887C161.353 13.9205 160.561 13.6364 159.569 13.6364C158.728 13.6364 157.989 13.8637 157.353 14.3182C156.717 14.7652 156.22 15.4091 155.864 16.25C155.516 17.0909 155.342 18.0985 155.342 19.2728C155.342 20.4621 155.516 21.4849 155.864 22.3409C156.213 23.1894 156.701 23.8447 157.33 24.3068C157.967 24.7614 158.713 24.9887 159.569 24.9887C160.175 24.9887 160.717 24.875 161.194 24.6478C161.679 24.4129 162.084 24.0758 162.41 23.6364C162.735 23.197 162.959 22.6629 163.08 22.0341H167.012C166.913 23.269 166.55 24.3637 165.921 25.3182C165.292 26.2652 164.436 27.0076 163.353 27.5455C162.27 28.0758 160.997 28.3409 159.535 28.3409Z" fill="white"/>
<path d="M178.146 13.7273V10.5455H174.703V6.36366H170.589V10.5455H168.112V13.7273H170.589V23.4318C170.581 24.5228 170.816 25.4318 171.293 26.1591C171.778 26.8864 172.434 27.4243 173.259 27.7728C174.085 28.1137 175.013 28.269 176.043 28.2387C176.627 28.2235 177.119 28.1705 177.521 28.0796C177.93 27.9887 178.244 27.9053 178.464 27.8296L177.771 24.6137C177.657 24.644 177.49 24.6781 177.271 24.7159C177.059 24.7538 176.824 24.7728 176.566 24.7728C176.225 24.7728 175.915 24.7197 175.634 24.6137C175.354 24.5076 175.127 24.3106 174.953 24.0228C174.786 23.7273 174.703 23.3031 174.703 22.75V13.7273H178.146Z" fill="white"/>
<path fill-rule="evenodd" clip-rule="evenodd" d="M0 0L32 1.39876e-06V32H0V0ZM27 22H17V26H27V22ZM17.5 16L7.58116 6L5 8.60228L12.3377 16L5 23.3977L7.58116 26L17.5 16Z" fill="#035E82"/>
</svg>
